PathFileType	4	(X/Y/Z)	F:\MotionCapture\20160217\3\Generated_files\2_Test02-Dynamic.trc
DataRate	CameraRate	NumFrames	NumMarkers	Units	OrigDataRate	OrigDataStartFrame	OrigNumFrames
120.00	120.00	       7	39	mm	120.00	314	       627
Frame#	Time	Top.Head			Front.Head			Rear.Head			R.Shoulder			R.Offset			R.Elbow			R.Wrist			L.Shoulder			L.Elbow			L.Wrist			R.ASIS			L.ASIS			V.Sacral			R.Thigh			R.Knee			R.Shank			R.Ankle			R.Heel			R.Toe			L.Thigh			L.Knee			L.Shank			L.Ankle			L.Heel			L.Toe			R1			R2			R3			R4			R5			R6			R7			L1			L2			L3			L4			L5			L6			L7			V_Mid_ASIS			V_Pelvis_Origin			V_R.Hip_JC			V_L.Hip_JC			V_R.Knee_JC			V_L.Knee_JC			V_R.Ankle_JC			V_L.Ankle_JC			V_Mid_Hip			V_Mid_Shoulder			V_R.Hand			V_L.Hand			V_R.Toe_Offset_Static			V_L.Toe_Offset_Static			V_R.Toe_Offset			V_L.Toe_Offset			
		X1	Y1	Z1	X2	Y2	Z2	X3	Y3	Z3	X4	Y4	Z4	X5	Y5	Z5	X6	Y6	Z6	X7	Y7	Z7	X8	Y8	Z8	X9	Y9	Z9	X10	Y10	Z10	X11	Y11	Z11	X12	Y12	Z12	X13	Y13	Z13	X14	Y14	Z14	X15	Y15	Z15	X16	Y16	Z16	X17	Y17	Z17	X18	Y18	Z18	X19	Y19	Z19	X20	Y20	Z20	X21	Y21	Z21	X22	Y22	Z22	X23	Y23	Z23	X24	Y24	Z24	X25	Y25	Z25	X26	Y26	Z26	X27	Y27	Z27	X28	Y28	Z28	X29	Y29	Z29	X30	Y30	Z30	X31	Y31	Z31	X32	Y32	Z32	X33	Y33	Z33	X34	Y34	Z34	X35	Y35	Z35	X36	Y36	Z36	X37	Y37	Z37	X38	Y38	Z38	X39	Y39	Z39	

314	2.608	-1596.30493	207.10449	1674.62231	-1693.29895	183.85895	1577.49011	-1479.39404	220.83173	1620.69214	-1509.38538	397.15683	1384.95264	-1370.64514	139.18945	1230.49585	-1564.92212	553.65857	1094.48926	-1809.85645	527.85046	1005.95404	-1523.52393	-7.04315	1374.67578	-1402.22644	-112.12222	1084.59509	-1393.30859	-147.13248	828.80670	-1554.27283	367.83258	906.32953	-1605.25037	81.27760	910.96118	-1359.11414	176.26198	901.49359	-1487.18311	322.15131	519.44080	-1358.80432	352.92221	441.76663	-1267.29333	268.44467	230.40553	-1133.76147	327.71497	105.45882	-1069.62439	260.07449	106.87107	-1259.69531	318.10052	37.89520	-1732.25891	122.77141	642.41071	-1722.91492	55.58360	468.33536	-1792.78613	125.96420	346.07782	-1833.64026	59.17935	73.83182	-1790.60120	124.35530	29.92431	-1966.19189	62.54235	111.56571	-1308.27112	301.68173	34.39547	-1269.51538	280.36481	42.61351	-1185.54883	240.02838	75.12326	-1112.35876	233.64534	92.88734	-1095.45483	306.22644	95.14299	-1159.36987	338.72601	56.21387	-1217.35388	356.69379	34.37772	-2011.73462	80.13512	131.59978	-1980.67371	96.31045	120.14404	-1897.59900	145.14157	90.36723	-1825.51257	152.46805	46.99331	-1812.26245	82.48695	39.17443	-1883.25183	47.80244	61.26766	-1934.41370	36.29272	91.17817																																																	-2571.73901	573.99231	585.22083	
315	2.617	-1608.74121	205.27635	1673.30981	-1705.76550	181.64996	1576.06287	-1491.84631	218.53975	1618.80383	-1521.41541	395.00220	1383.94250	-1382.78931	137.40161	1228.22290	-1576.69702	551.17639	1092.51208	-1821.47205	526.58295	1004.02148	-1535.99927	-9.33141	1373.33142	-1414.28894	-113.36314	1083.21423	-1404.06250	-147.27582	826.95935	-1568.81763	365.75089	905.01868	-1620.38208	79.69006	910.78070	-1373.18225	173.18205	900.41174	-1498.90002	322.52600	518.07507	-1370.34680	353.43298	441.35049	-1273.44604	270.00873	231.23788	-1136.72388	328.30273	109.58686	-1073.35693	260.79221	113.34184	-1260.04590	318.48822	37.90927	-1748.19714	122.09758	643.26031	-1736.92346	55.23927	466.64514	-1804.13220	126.10995	342.63928	-1846.90662	63.57113	69.79375	-1793.82581	122.97692	28.58990	-1973.47412	63.41983	106.10504	-1308.32410	301.74246	34.40786	-1269.97998	280.01587	42.59510	-1188.13306	240.65889	78.62127	-1115.49756	234.50829	98.18786	-1098.64563	306.92004	100.38181	-1160.92200	339.19699	58.53797	-1217.47302	357.36551	34.88909	-2019.13367	82.68401	124.39852	-1987.72083	98.38454	113.20364	-1903.29468	146.64319	84.54002	-1829.66870	153.20369	43.11415	-1817.45886	81.80151	36.13806	-1889.07117	49.11313	55.68927	-1940.92432	37.79916	84.79404																																																	-2579.26050	575.65967	583.05206	
316	2.625	-1621.46021	203.30609	1672.03564	-1718.46143	179.62965	1574.95996	-1504.42383	216.71451	1617.70569	-1533.97119	392.46747	1382.68359	-1396.18115	135.09190	1226.90466	-1587.68469	548.46436	1091.26978	-1832.60583	525.28088	1001.54486	-1548.38391	-11.30388	1371.94971	-1426.31677	-114.55917	1081.68506	-1416.05408	-147.72879	825.30804	-1583.03430	363.95404	903.67560	-1635.42529	78.24254	910.26385	-1388.61450	170.92365	899.55713	-1511.99622	323.40128	516.65472	-1381.64893	354.69067	441.18384	-1280.58105	271.35278	232.87598	-1139.86133	329.10272	113.76167	-1077.22095	261.46719	120.79716	-1260.20630	318.72177	37.74820	-1763.49854	121.00932	643.49615	-1750.83362	54.50040	464.94427	-1815.50085	126.90532	338.77582	-1848.39844	63.15922	66.94873	-1796.40051	123.52743	30.43420	-1982.37976	65.38546	94.44000	-1308.28931	301.72202	34.39199	-1271.62903	280.27875	44.11586	-1191.32837	242.06303	82.40239	-1119.62634	235.34399	104.17203	-1101.91248	307.29578	106.24120	-1162.68213	339.99603	61.39677	-1218.17249	356.72375	34.79438				-1995.06824	98.75850	101.14626	-1909.78418	147.24734	77.67941	-1831.66785	153.67871	41.31611	-1821.50220	81.98599	37.04892	-1893.86218	49.89487	50.38142	-1947.97412	38.94738	75.78698																																																	-2004.10168	78.43208	117.10699	-1424.70520	342.24124	-3.04136	-1514.38367	171.58199	-62.40249	
317	2.633	-1633.93506	201.33958	1671.33447	-1731.38452	177.08217	1574.24292	-1517.39478	214.38730	1616.42163	-1545.94470	390.30743	1381.98755	-1409.82397	132.87224	1224.81604	-1598.65845	546.11786	1089.45972	-1843.19836	523.82758	998.82343	-1561.54138	-13.65553	1370.38672	-1438.99268	-115.95634	1080.11304	-1428.14868	-147.77614	823.48407	-1597.18835	362.61600	902.29474	-1649.85571	77.09266	910.16052	-1402.71057	168.42136	897.82214	-1524.99646	324.29620	515.07422	-1393.64722	355.40845	440.70151	-1288.46069	272.91556	234.47112	-1144.32507	330.08527	118.96273	-1083.04224	261.90216	128.25519	-1260.54932	319.01224	37.69457	-1778.42810	118.99434	642.99786	-1764.05432	53.83264	463.27676	-1827.22595	127.44692	336.27673	-1853.50464	61.04042	67.36967	-1799.83154	123.14139	33.01350	-1989.66333	64.81538	81.91396	-1306.04211	301.10229	32.30598	-1270.90857	281.36124	42.15312	-1195.46558	243.26382	86.39693	-1124.89893	235.89641	110.95194	-1106.39185	307.78592	113.14642	-1164.87915	340.40778	64.86503	-1218.72351	356.81390	35.16759	-2035.74036	84.08703	94.42232	-2005.07312	100.08557	88.09078	-1916.96741	148.14452	71.55835	-1836.95764	153.76868	42.51756	-1824.19873	82.15761	37.97179	-1898.28528	50.90881	46.94851	-1953.89209	39.19975	66.25494																																																	-1403.74438	377.89557	-6.98046	-1434.31287	344.97668	-0.47637	
318	2.642	-1646.91724	199.22948	1671.55127	-1744.25476	174.94106	1574.65576	-1530.07007	212.81339	1616.53540	-1558.34229	388.25735	1381.67932	-1422.90222	130.98640	1223.28723	-1609.84839	543.79462	1088.28613	-1853.64856	522.44818	995.53296	-1574.22815	-16.07314	1369.57520	-1452.00769	-117.50351	1078.52002	-1441.55627	-148.16969	821.90869	-1611.48645	360.59958	901.05884	-1664.14453	75.53999	910.15320	-1415.42480	165.56718	897.34033	-1540.30176	326.80057	514.45715	-1406.88074	356.59125	440.32971	-1296.83398	275.09366	236.00410	-1149.12683	331.23065	124.74516	-1089.65857	262.62659	137.19289	-1261.15027	319.28604	37.73077	-1792.80139	116.91750	641.79456	-1777.52563	52.37025	462.98395	-1837.79077	128.11786	336.17899	-1861.01892	61.52175	66.13158	-1802.64856	122.00176	35.45526	-1995.39307	65.70187	74.31330	-1305.74158	300.98267	32.23500	-1272.47449	281.31213	43.01807	-1199.68115	245.09467	90.76025	-1131.02722	237.15245	118.25476	-1111.96460	308.75894	120.55518	-1167.32800	341.28271	68.21590	-1219.35181	356.41211	36.26065	-2041.30103	86.46363	85.11646	-2010.08679	100.90269	80.49120	-1920.97522	148.31276	67.02341	-1839.69202	152.45248	42.55392	-1828.80676	82.12610	38.15597	-1901.83923	50.40781	42.01194	-1958.57056	39.81557	60.21254	
319	2.650	-1659.84778	196.96742	1671.76917	-1756.92212	172.65382	1574.95203	-1543.06897	210.62476	1617.25574	-1571.19629	386.23627	1381.11963	-1435.34497	128.97383	1222.83911	-1620.40662	540.40894	1087.27808	-1863.65186	521.02576	992.07550	-1586.85400	-18.57688	1368.47241	-1465.57776	-118.97784	1077.18066	-1455.09180	-148.23792	820.07001	-1625.58240	358.39352	899.84784	-1677.78308	74.07484	910.52112	-1431.31812	163.03835	896.48785	-1554.81604	328.46362	513.37146	-1421.05371	358.34937	440.48190	-1306.84436	277.29074	238.00836	-1155.09387	331.84427	131.45309	-1097.85596	262.61728	146.45071	-1261.90344	319.33972	37.74239	-1806.83948	113.98206	641.08069	-1791.67969	51.22469	464.86279	-1847.43030	128.51430	336.20422	-1865.21423	60.96297	64.65562	-1805.05249	120.80937	36.93753	-2000.08374	67.71331	66.39482	-1305.18860	300.93243	32.18586	-1273.51282	281.26199	42.78626	-1204.86414	246.38148	95.14479	-1139.24231	236.94539	126.70664	-1117.78821	310.66354	130.50012	-1170.04407	340.78845	72.28606	-1220.37463	355.69122	37.42017	-2045.75757	89.82289	75.53321	-2014.28833	103.52139	71.99764	-1923.94348	148.98929	63.59432	-1841.19275	151.82826	42.44172	-1831.46411	80.67145	38.82594	-1905.12512	50.87477	39.69210	-1962.97668	40.91056	54.13763	
320	2.658	-1672.82703	194.89561	1672.65601	-1769.74158	170.40387	1575.71033	-1556.39673	208.40030	1617.85522	-1583.16125	384.39862	1381.21448	-1447.93152	126.84389	1222.57397	-1631.14954	537.88708	1086.06091	-1872.78040	520.26337	988.00903	-1599.97693	-21.15388	1368.04736	-1479.39636	-120.09954	1075.60938	-1469.33423	-148.13496	818.36981	-1640.30457	356.07925	899.17865	-1691.52698	72.33723	911.16455	-1444.73108	160.31432	896.46368	-1570.68359	330.30707	513.09399	-1435.61023	360.47592	440.30350	-1317.87891	280.05209	239.73560	-1162.03735	332.81635	138.06895	-1107.80872	262.64362	156.50182	-1262.76270	319.18759	37.68978	-1820.85681	110.61853	641.70844	-1807.11572	50.20546	467.95514	-1856.63000	128.65173	336.23712	-1868.68445	60.52716	63.91458	-1806.44763	119.24053	38.93480	-2003.57239	70.03655	57.89532	-1306.82751	301.23322	34.48667	-1274.32715	280.86456	42.47587	-1212.34412	248.22607	99.96327	-1147.96313	238.58107	134.33482	-1125.21362	310.62045	138.62965	-1174.25305	341.29480	77.02074	-1222.06934	355.10229	38.80109	-2049.03442	91.45785	65.90712	-2017.28284	104.99926	63.62536	-1926.00549	149.46014	60.76525	-1842.57507	151.04294	43.26791	-1833.76843	79.39805	38.52999	-1907.93616	51.41042	35.77396	-1966.98999	42.30190	47.34653	
